<svg width="18" height="18" viewBox="0 0 18 18" fill="none" xmlns="http://www.w3.org/2000/svg">
<path d="M12.6172 16.8355C14.9494 16.8355 16.84 14.9449 16.84 12.6127C16.84 10.2805 14.9494 8.38989 12.6172 8.38989C10.285 8.38989 8.39441 10.2805 8.39441 12.6127C8.39441 14.9449 10.285 16.8355 12.6172 16.8355Z" stroke="#7A8DF7" stroke-linecap="round" stroke-linejoin="round"/>
<path d="M12.6172 10.5013V14.7241" stroke="#7A8DF7" stroke-linecap="round" stroke-linejoin="round"/>
<path d="M10.5059 12.6127H14.7286" stroke="#7A8DF7" stroke-linecap="round" stroke-linejoin="round"/>
<path d="M6.0191 12.6127H3.51288C3.2842 12.6085 3.06364 12.5272 2.88697 12.3819C2.71029 12.2367 2.58786 12.036 2.53952 11.8124L1.0348 5.47826C0.994641 5.3266 0.989161 5.16785 1.01877 5.01379C1.04837 4.85972 1.11231 4.71431 1.20582 4.58834C1.29933 4.46237 1.42002 4.35909 1.55892 4.28616C1.69782 4.21323 1.85137 4.17253 2.00816 4.16708H14.7807C14.9374 4.17266 15.0909 4.21345 15.2297 4.28642C15.3686 4.35938 15.4892 4.46266 15.5827 4.58859C15.6762 4.71453 15.7401 4.85988 15.7698 5.01389C15.7994 5.1679 15.7941 5.32661 15.754 5.47826L15.5429 6.36223" stroke="#7A8DF7" stroke-linecap="round" stroke-linejoin="round"/>
<path d="M3.11597 4.16709L6.28306 1" stroke="#7A8DF7" stroke-linecap="round" stroke-linejoin="round"/>
<path d="M13.673 4.16709L10.5059 1.0014" stroke="#7A8DF7" stroke-linecap="round" stroke-linejoin="round"/>
</svg>
