<svg width="24" height="21" viewBox="0 0 24 21" fill="none" xmlns="http://www.w3.org/2000/svg">
<path d="M4.21045 7.26537L8.9061 1.78711" stroke="#95A187" stroke-width="2" stroke-linecap="round" stroke-linejoin="round"/>
<path d="M19.8626 7.26537L15.167 1.78711" stroke="#95A187" stroke-width="2" stroke-linecap="round" stroke-linejoin="round"/>
<path d="M19.2741 19.7869H4.79896C4.46006 19.7807 4.13316 19.6603 3.87124 19.4452C3.60931 19.23 3.4277 18.9327 3.35583 18.6015L1.12487 9.21018C1.06514 8.98526 1.05688 8.74977 1.10068 8.52122C1.14449 8.29267 1.23925 8.07693 1.37792 7.89004C1.51658 7.70315 1.69558 7.54991 1.90162 7.44173C2.10766 7.33354 2.33543 7.27318 2.568 7.26514H21.505C21.7376 7.27318 21.9654 7.33354 22.1714 7.44173C22.3775 7.54991 22.5565 7.70315 22.6951 7.89004C22.8338 8.07693 22.9286 8.29267 22.9724 8.52122C23.0162 8.74977 23.0079 8.98526 22.9482 9.21018L20.7172 18.6015C20.6453 18.9327 20.4637 19.23 20.2018 19.4452C19.9399 19.6603 19.613 19.7807 19.2741 19.7869Z" fill="#95A187" stroke="#95A187" stroke-linecap="round" stroke-linejoin="round"/>
<path d="M7.34082 10.396V16.6569" stroke="#F8F9FA" stroke-linecap="round" stroke-linejoin="round"/>
<path d="M12.0366 10.396V16.6569" stroke="#F8F9FA" stroke-linecap="round" stroke-linejoin="round"/>
<path d="M16.7322 10.396V16.6569" stroke="#F8F9FA" stroke-linecap="round" stroke-linejoin="round"/>
</svg>
