<svg width="29" height="29" viewBox="0 0 29 29" fill="none" xmlns="http://www.w3.org/2000/svg">
<path d="M25.6964 8.41211H2.55357C1.48845 8.41211 0.625 9.19087 0.625 10.1515V25.8062C0.625 26.7668 1.48845 27.5456 2.55357 27.5456H25.6964C26.7615 27.5456 27.625 26.7668 27.625 25.8062V10.1515C27.625 9.19087 26.7615 8.41211 25.6964 8.41211Z" stroke="black" stroke-linecap="round" stroke-linejoin="round"/>
<path d="M27.3675 9.2818L24.2818 2.48768C24.1301 2.17958 23.8823 1.9179 23.5687 1.73446C23.255 1.55103 22.8891 1.45376 22.5153 1.45447H5.73541C5.36139 1.45353 4.99513 1.5507 4.68125 1.73415C4.36737 1.91759 4.1194 2.1794 3.96755 2.48768L0.881836 9.2818" stroke="black" stroke-linecap="round" stroke-linejoin="round"/>
<path d="M14.125 8.41209V1.45447" stroke="black" stroke-linecap="round" stroke-linejoin="round"/>
<path d="M17.0176 22.3275H22.8033" stroke="black" stroke-linecap="round" stroke-linejoin="round"/>
</svg>
