<svg width="18" height="19" viewBox="0 0 18 19" fill="none" xmlns="http://www.w3.org/2000/svg">
<path d="M17.5478 0.709592C17.4512 0.631551 17.3401 0.573349 17.2209 0.538319C17.1017 0.503289 16.9768 0.492121 16.8532 0.505455C16.7297 0.518788 16.6101 0.556361 16.5011 0.61602C16.3921 0.67568 16.296 0.756253 16.2183 0.853124L6.66204 12.7436L4.63748 10.7417C4.46017 10.5644 4.21968 10.4648 3.96892 10.4648C3.71816 10.4648 3.47768 10.5644 3.30036 10.7417C3.12305 10.919 3.02344 11.1595 3.02344 11.4103C3.02344 11.661 3.12305 11.9015 3.30036 12.0788L6.05014 14.8211C6.13657 14.9093 6.24013 14.9789 6.35444 15.0257C6.46876 15.0725 6.59143 15.0954 6.71492 15.093C6.84916 15.0921 6.98159 15.0619 7.10294 15.0045C7.2243 14.9471 7.33164 14.8639 7.41747 14.7606L17.6913 2.03915C17.7694 1.9425 17.8276 1.8314 17.8626 1.71221C17.8976 1.59302 17.9088 1.4681 17.8955 1.34459C17.8821 1.22108 17.8446 1.10141 17.7849 0.992449C17.7253 0.883485 17.6447 0.787364 17.5478 0.709592Z" fill="black"/>
<path d="M13.3558 10.145C13.2537 10.1515 13.154 10.1787 13.0627 10.2249C12.9715 10.2711 12.8905 10.3353 12.8249 10.4138C12.7592 10.4922 12.7101 10.5831 12.6806 10.681C12.6511 10.779 12.6418 10.8819 12.6532 10.9835C12.6532 11.112 12.6532 11.2404 12.6532 11.3688C12.65 12.5586 12.2667 13.7163 11.5593 14.6729C10.8519 15.6296 9.85738 16.3352 8.72074 16.6869C7.5841 17.0386 6.36483 17.0179 5.24076 16.6279C4.11669 16.2379 3.14662 15.499 2.47202 14.519C1.79742 13.5389 1.45359 12.3689 1.49068 11.1797C1.52776 9.99047 1.94382 8.8442 2.67817 7.90806C3.41252 6.97192 4.42675 6.29488 5.57293 5.97569C6.71912 5.6565 7.9373 5.71185 9.04982 6.13367C9.14415 6.18041 9.2472 6.20692 9.35238 6.2115C9.45755 6.21608 9.56252 6.19862 9.66055 6.16025C9.75858 6.12189 9.84752 6.06345 9.92164 5.9887C9.99577 5.91395 10.0535 5.82453 10.091 5.72618C10.1285 5.62783 10.1451 5.52272 10.1396 5.41759C10.1342 5.31246 10.1068 5.20963 10.0593 5.1157C10.0117 5.02177 9.94511 4.9388 9.86364 4.87214C9.78217 4.80547 9.68766 4.75657 9.58618 4.72856C8.16478 4.20002 6.61162 4.13989 5.15361 4.55696C3.69561 4.97402 2.40919 5.84641 1.48232 7.04667C0.555442 8.24693 0.0366972 9.71214 0.00187526 11.2282C-0.0329466 12.7443 0.41798 14.2318 1.28877 15.4733C2.15956 16.7149 3.40457 17.6454 4.84188 18.129C6.2792 18.6126 7.83349 18.6238 9.27766 18.1611C10.7218 17.6983 11.9802 16.7859 12.8688 15.5571C13.7575 14.3283 14.2299 12.8475 14.217 11.331C14.217 11.1724 14.217 11.0062 14.217 10.8476C14.2107 10.7433 14.1829 10.6415 14.1353 10.5485C14.0877 10.4556 14.0214 10.3735 13.9404 10.3075C13.8595 10.2414 13.7658 10.1929 13.6651 10.165C13.5645 10.137 13.4592 10.1302 13.3558 10.145Z" fill="black"/>
</svg>
