<svg width="18" height="18" viewBox="0 0 18 18" fill="none" xmlns="http://www.w3.org/2000/svg">
<path d="M16.7853 0.975617C16.6979 0.905063 16.5975 0.852444 16.4897 0.820776C16.382 0.789107 16.269 0.77901 16.1574 0.791064C16.0457 0.803119 15.9375 0.837087 15.839 0.891022C15.7405 0.944958 15.6536 1.0178 15.5833 1.10538L6.9439 11.8551L5.11358 10.0453C4.95328 9.88497 4.73586 9.79491 4.50916 9.79491C4.28246 9.79491 4.06505 9.88497 3.90475 10.0453C3.74444 10.2056 3.65439 10.423 3.65439 10.6497C3.65439 10.8764 3.74444 11.0938 3.90475 11.2541L6.3907 13.7332C6.46885 13.813 6.56247 13.8759 6.66582 13.9182C6.76917 13.9605 6.88006 13.9812 6.99171 13.9791C7.11307 13.9783 7.2328 13.951 7.34251 13.8991C7.45222 13.8472 7.54926 13.7719 7.62685 13.6786L16.9151 2.17762C16.9856 2.09024 17.0382 1.98979 17.0699 1.88204C17.1016 1.77429 17.1117 1.66135 17.0996 1.54969C17.0876 1.43803 17.0536 1.32985 16.9996 1.23134C16.9457 1.13283 16.8729 1.04593 16.7853 0.975617Z" fill="#F8F9FA"/>
<path d="M12.9957 9.50581C12.9034 9.5117 12.8133 9.53627 12.7308 9.57804C12.6483 9.6198 12.5751 9.67789 12.5157 9.74877C12.4563 9.81966 12.412 9.90186 12.3853 9.99041C12.3586 10.079 12.3502 10.172 12.3606 10.2639C12.3606 10.38 12.3606 10.4961 12.3606 10.6122C12.3577 11.6878 12.0112 12.7344 11.3716 13.5993C10.7321 14.4642 9.83295 15.1021 8.80536 15.4201C7.77778 15.738 6.67549 15.7193 5.65926 15.3668C4.64303 15.0142 3.76602 14.3462 3.15615 13.4601C2.54627 12.5741 2.23543 11.5163 2.26896 10.4412C2.30248 9.36609 2.67862 8.3298 3.34252 7.48347C4.00642 6.63715 4.92334 6.02506 5.95956 5.73649C6.99578 5.44793 8.09709 5.49797 9.10287 5.87932C9.18815 5.92157 9.28132 5.94554 9.3764 5.94968C9.47149 5.95382 9.56638 5.93804 9.65501 5.90335C9.74364 5.86867 9.82404 5.81584 9.89105 5.74826C9.95807 5.68068 10.0102 5.59984 10.0442 5.51093C10.0781 5.42201 10.0931 5.32698 10.0881 5.23194C10.0832 5.13689 10.0585 5.04393 10.0155 4.95901C9.97251 4.87409 9.91227 4.79909 9.83861 4.73882C9.76496 4.67855 9.67952 4.63433 9.58777 4.60902C8.30275 4.13119 6.89859 4.07683 5.58047 4.45387C4.26235 4.83092 3.09934 5.61962 2.2614 6.70472C1.42345 7.78983 0.954472 9.11447 0.922991 10.4851C0.891509 11.8557 1.29917 13.2005 2.08642 14.3229C2.87366 15.4454 3.99923 16.2866 5.29865 16.7238C6.59807 17.161 8.00324 17.1711 9.30885 16.7528C10.6145 16.3345 11.7521 15.5096 12.5555 14.3987C13.3589 13.2877 13.7859 11.949 13.7743 10.5781C13.7743 10.4346 13.7743 10.2844 13.7743 10.141C13.7686 10.0467 13.7435 9.95465 13.7005 9.87061C13.6574 9.78656 13.5974 9.71235 13.5243 9.65267C13.4511 9.59298 13.3664 9.54911 13.2754 9.52384C13.1844 9.49856 13.0892 9.49242 12.9957 9.50581Z" fill="#F8F9FA"/>
</svg>
