<svg width="14" height="15" viewBox="0 0 14 15" fill="none" xmlns="http://www.w3.org/2000/svg">
<g clip-path="url(#clip0_1011_396)">
<path d="M13.5334 1.69817C13.5373 1.63843 13.5289 1.57852 13.5088 1.52215C13.4886 1.46577 13.4571 1.41412 13.4162 1.37039C13.3753 1.32666 13.3259 1.29177 13.271 1.26789C13.2161 1.244 13.1569 1.23162 13.0971 1.23151H0.875051C0.815157 1.23153 0.755906 1.24386 0.700969 1.26772C0.646032 1.29157 0.596579 1.32646 0.555673 1.37021C0.514768 1.41396 0.483281 1.46564 0.463163 1.52205C0.443045 1.57847 0.434725 1.63841 0.438717 1.69817C0.541315 3.12676 1.1083 4.4826 2.05321 5.55895C2.99812 6.6353 4.26912 7.3731 5.67239 7.65984V13.4203C5.67242 13.5034 5.69613 13.5848 5.74075 13.6549C5.78538 13.7251 5.84906 13.781 5.92434 13.8163C5.99963 13.8516 6.0834 13.8646 6.16585 13.854C6.2483 13.8434 6.32601 13.8095 6.38989 13.7563L8.13989 12.2979C8.18922 12.2569 8.22891 12.2056 8.25613 12.1475C8.28336 12.0894 8.29744 12.0261 8.29739 11.9619V7.65984C9.70113 7.37364 10.9727 6.63606 11.9181 5.55965C12.8635 4.48325 13.4308 3.12711 13.5334 1.69817V1.69817Z" stroke="#212529" stroke-linecap="round" stroke-linejoin="round"/>
</g>
<defs>
<clipPath id="clip0_1011_396">
<rect width="14" height="14" fill="white" transform="translate(0 0.5)"/>
</clipPath>
</defs>
</svg>
