<svg width="22" height="21" viewBox="0 0 22 21" fill="none" xmlns="http://www.w3.org/2000/svg">
<path d="M10.5629 19.7871C6.88984 16.6001 -0.75451 8.84947 1.4313 4.47527C1.7759 3.78604 2.27936 3.18857 2.90019 2.73211C3.52101 2.27565 4.24143 1.97326 5.00206 1.84986C5.76268 1.72647 6.54175 1.7856 7.27504 2.02239C8.00833 2.25918 8.67485 2.66684 9.21966 3.21178L10.562 4.55327L11.9044 3.21178C12.4491 2.66737 13.1154 2.26016 13.8483 2.02368C14.5813 1.7872 15.3599 1.72822 16.1201 1.8516C16.8803 1.97498 17.6003 2.27719 18.2209 2.73334C18.8414 3.18948 19.3447 3.78652 19.6893 4.47527C21.8648 8.82204 14.241 16.637 10.5629 19.7871Z" fill="#95A187" stroke="#95A187" stroke-width="2" stroke-linecap="round" stroke-linejoin="round"/>
</svg>
