<svg width="375" height="505" viewBox="0 0 375 505" fill="none" xmlns="http://www.w3.org/2000/svg">
<path fill-rule="evenodd" clip-rule="evenodd" d="M274.974 14.159C319.731 28.274 369.577 41.0469 396.449 79.5173C423.818 118.699 412.778 170.826 417.616 218.365C423.358 274.789 460.138 338.382 427.516 384.768C394.891 431.158 320.382 411.127 267.543 431.756C215.818 451.951 176.555 510.388 121.35 504.303C66.1401 498.218 26.5143 446.963 -5.60434 401.649C-33.9027 361.724 -39.5704 312.505 -48.6706 264.432C-57.2481 219.12 -77.7018 170.452 -57.1863 129.159C-36.9192 88.365 15.6917 79.1019 54.9163 55.9318C88.1374 36.308 117.581 10.7248 155.494 3.52791C195.584 -4.08235 236.051 1.88393 274.974 14.159Z" fill="#F3E9D9"/>
</svg>
