<svg width="1728" height="1000" viewBox="0 0 1728 1000" fill="none" xmlns="http://www.w3.org/2000/svg">
<path fill-rule="evenodd" clip-rule="evenodd" d="M1265.28 -1067.94C1452.99 -994.886 1662.91 -926.191 1766.83 -753.471C1872.68 -577.557 1810.1 -356.683 1816.93 -151.119C1825.03 92.8692 1964.07 376.264 1810.67 566.489C1657.26 756.729 1343.76 650.011 1111.24 723.981C883.62 796.393 698.228 1036.55 463.388 995.095C228.523 953.64 73.6733 722.461 -50.7363 518.887C-160.349 339.525 -170.239 126.511 -195.179 -82.5351C-218.686 -279.572 -292.115 -494.318 -192.097 -666.023C-93.29 -835.651 134.925 -860.854 309.832 -949.513C457.969 -1024.6 591.656 -1126.34 756.267 -1146.74C930.333 -1168.32 1102.04 -1131.46 1265.28 -1067.94Z" fill="#F3E9D9"/>
</svg>
