<svg width="31" height="30" viewBox="0 0 31 30" fill="none" xmlns="http://www.w3.org/2000/svg">
<path d="M15.5834 21.2822C18.9662 21.2822 21.7084 18.54 21.7084 15.1572C21.7084 11.7745 18.9662 9.03223 15.5834 9.03223C12.2007 9.03223 9.45844 11.7745 9.45844 15.1572C9.45844 18.54 12.2007 21.2822 15.5834 21.2822Z" stroke="#F8F9FA" stroke-width="1.5" stroke-linecap="round" stroke-linejoin="round"/>
<path d="M22.5834 1.15723H8.58344C4.71744 1.15723 1.58344 4.29123 1.58344 8.15723V22.1572C1.58344 26.0232 4.71744 29.1572 8.58344 29.1572H22.5834C26.4494 29.1572 29.5834 26.0232 29.5834 22.1572V8.15723C29.5834 4.29123 26.4494 1.15723 22.5834 1.15723Z" stroke="#F8F9FA" stroke-width="1.5" stroke-linecap="round" stroke-linejoin="round"/>
<path d="M23.6947 7.50098C23.453 7.50098 23.2572 7.3051 23.2572 7.06348C23.2572 6.82185 23.453 6.62598 23.6947 6.62598" stroke="#F8F9FA" stroke-width="1.5"/>
<path d="M23.6947 7.50098C23.9364 7.50098 24.1322 7.3051 24.1322 7.06348C24.1322 6.82185 23.9364 6.62598 23.6947 6.62598" stroke="#F8F9FA" stroke-width="1.5"/>
</svg>
