<svg width="16" height="14" viewBox="0 0 16 14" fill="none" xmlns="http://www.w3.org/2000/svg">
<path d="M8 2.85511C8.15611 2.85511 8.30326 2.7822 8.39782 2.658L8.39785 2.65796L8.39797 2.6578L8.40028 2.65481L8.41265 2.63905C8.42419 2.62448 8.44225 2.60198 8.46648 2.57269C8.51499 2.51408 8.58803 2.42853 8.68293 2.32503C8.87328 2.11742 9.14854 1.8409 9.48719 1.56545C10.1781 1.00349 11.0665 0.5 12 0.5C13.9464 0.5 15.5 2.02936 15.5 3.88594C15.5 4.67818 15.3417 6.04888 14.3576 7.72431C13.3716 9.40281 11.5407 11.4143 8.15252 13.4585C8.10717 13.4854 8.0544 13.5 8 13.5C7.9456 13.5 7.89283 13.4854 7.84748 13.4585C4.45933 11.4143 2.62839 9.40281 1.64242 7.72431C0.658253 6.04888 0.5 4.67818 0.5 3.88594C0.5 2.02936 2.05357 0.5 4 0.5C4.93349 0.5 5.82188 1.00349 6.51281 1.56545C6.85146 1.8409 7.12672 2.11741 7.31707 2.32503C7.41196 2.42853 7.48501 2.51408 7.53352 2.57269C7.55775 2.60198 7.57581 2.62448 7.58735 2.63905L7.59972 2.65481L7.60203 2.6578L7.60215 2.65796L7.60218 2.658C7.60224 2.65808 7.6023 2.65816 7.60236 2.65824C7.60237 2.65825 7.60238 2.65826 7.60239 2.65827C7.69696 2.78231 7.844 2.85511 8 2.85511Z" stroke="#7A8DF7" stroke-linecap="round" stroke-linejoin="round"/>
</svg>
