<svg width="20" height="21" viewBox="0 0 20 21" fill="none" xmlns="http://www.w3.org/2000/svg">
<path d="M12.2412 18.8216L12.2506 18.8271C13.0862 19.359 14.0781 19.5901 15.0627 19.4821C16.0473 19.3741 16.9657 18.9335 17.666 18.2331L18.2749 17.6243C18.5468 17.352 18.6996 16.9829 18.6996 16.5981C18.6996 16.2132 18.5468 15.8442 18.2749 15.5719L15.7096 13.0081C15.4373 12.7362 15.0682 12.5834 14.6834 12.5834C14.2986 12.5834 13.9295 12.7362 13.6572 13.0081V13.0081C13.5225 13.1429 13.3626 13.2499 13.1866 13.3229C13.0106 13.3958 12.8219 13.4334 12.6314 13.4334C12.4408 13.4334 12.2522 13.3958 12.0761 13.3229C11.9001 13.2499 11.7402 13.1429 11.6056 13.0081L7.50076 8.90253C7.22882 8.63025 7.07607 8.26116 7.07607 7.87633C7.07607 7.4915 7.22882 7.12241 7.50076 6.85013V6.85013C7.63558 6.71548 7.74253 6.55557 7.8155 6.37956C7.88848 6.20354 7.92604 6.01486 7.92604 5.82432C7.92604 5.63378 7.88848 5.4451 7.8155 5.26909C7.74253 5.09307 7.63558 4.93316 7.50076 4.79851L4.93624 2.23084C4.66396 1.9589 4.29486 1.80615 3.91004 1.80615C3.52521 1.80615 3.15612 1.9589 2.88384 2.23084L2.27496 2.83972C1.57469 3.54015 1.13415 4.45839 1.02603 5.44291C0.917908 6.42744 1.14867 7.4194 1.68024 8.25511L1.68653 8.26455C4.49761 12.4259 8.08051 16.0096 12.2412 18.8216V18.8216Z" stroke="#F8F9FA" stroke-width="2" stroke-linecap="round" stroke-linejoin="round"/>
</svg>
