<svg width="28" height="27" viewBox="0 0 28 27" fill="none" xmlns="http://www.w3.org/2000/svg">
<g clip-path="url(#clip0_911_12827)">
<path d="M24.8676 14.3359V24.3672C24.8676 24.8106 24.6914 25.2358 24.3779 25.5494C24.0643 25.8629 23.6391 26.0391 23.1957 26.0391H4.80505C4.36164 26.0391 3.9364 25.8629 3.62286 25.5494C3.30932 25.2358 3.13318 24.8106 3.13318 24.3672V14.3359" stroke="black" stroke-linecap="round" stroke-linejoin="round"/>
<path d="M3.13318 19.3516H17.3441" stroke="black" stroke-linecap="round" stroke-linejoin="round"/>
<path d="M17.3441 26.0391V14.3359" stroke="black" stroke-linecap="round" stroke-linejoin="round"/>
<path d="M1.4613 8.48438C1.50899 9.28418 1.86032 10.0356 2.44349 10.585C3.02666 11.1344 3.79763 11.4404 4.59886 11.4404C5.40008 11.4404 6.17105 11.1344 6.75422 10.585C7.33739 10.0356 7.68872 9.28418 7.73641 8.48438C7.73641 9.31503 8.06638 10.1117 8.65374 10.699C9.2411 11.2864 10.0377 11.6164 10.8684 11.6164C11.699 11.6164 12.4957 11.2864 13.083 10.699C13.6704 10.1117 14.0004 9.31503 14.0004 8.48438C14.0481 9.28418 14.3994 10.0356 14.9826 10.585C15.5657 11.1344 16.3367 11.4404 17.1379 11.4404C17.9391 11.4404 18.7101 11.1344 19.2933 10.585C19.8765 10.0356 20.2278 9.28418 20.2755 8.48438C20.2755 9.31503 20.6054 10.1117 21.1928 10.699C21.7802 11.2864 22.5768 11.6164 23.4075 11.6164C24.2381 11.6164 25.0347 11.2864 25.6221 10.699C26.2095 10.1117 26.5394 9.31503 26.5394 8.48438V8.48438L25.0124 1.61854C24.9719 1.43272 24.8691 1.26629 24.7212 1.14673C24.5733 1.02717 24.389 0.961631 24.1988 0.960938H3.80193C3.61173 0.961631 3.42745 1.02717 3.27952 1.14673C3.13159 1.26629 3.02886 1.43272 2.98828 1.61854L1.4613 8.48438Z" stroke="black" stroke-linecap="round" stroke-linejoin="round"/>
</g>
<defs>
<clipPath id="clip0_911_12827">
<rect width="26.75" height="26.75" fill="white" transform="translate(0.625366 0.125)"/>
</clipPath>
</defs>
</svg>
