<svg width="15" height="14" viewBox="0 0 15 14" fill="none" xmlns="http://www.w3.org/2000/svg">
<g clip-path="url(#clip0_959_12439)">
<path d="M14.2433 5.09242C14.1824 4.92268 14.0709 4.77573 13.9238 4.67141C13.7767 4.56709 13.6011 4.51043 13.4208 4.50909H9.86831C9.80836 4.50906 9.74989 4.49057 9.70083 4.45612C9.65177 4.42168 9.61452 4.37296 9.59414 4.31659L8.32247 0.699919C8.25621 0.536103 8.1425 0.395824 7.99595 0.297083C7.8494 0.198343 7.67668 0.145645 7.49997 0.145752C7.32024 0.146612 7.1452 0.20317 6.99894 0.307639C6.85268 0.412107 6.74241 0.559348 6.68331 0.729085L5.40581 4.32825C5.38543 4.38462 5.34817 4.43334 5.29912 4.46779C5.25006 4.50223 5.19158 4.52073 5.13164 4.52075H1.57914C1.39861 4.52126 1.22266 4.57759 1.07541 4.68203C0.928161 4.78646 0.816815 4.93388 0.75664 5.10408C0.698773 5.27234 0.692863 5.4541 0.739678 5.62576C0.786493 5.79741 0.883866 5.95101 1.01914 6.06659L4.04081 8.57492C4.08621 8.61197 4.1194 8.66184 4.13604 8.71803C4.15269 8.77421 4.15203 8.83411 4.13414 8.88992L2.86247 12.6991C2.80258 12.8755 2.80054 13.0663 2.85663 13.2439C2.91272 13.4216 3.02403 13.5766 3.17436 13.6866C3.32469 13.7966 3.50618 13.8557 3.69245 13.8554C3.87871 13.8551 4.06001 13.7954 4.20997 13.6849L7.32497 11.3983C7.37455 11.3609 7.43496 11.3406 7.49706 11.3406C7.55915 11.3406 7.61956 11.3609 7.66914 11.3983L10.79 13.6849C10.9388 13.8087 11.1244 13.8797 11.3179 13.8867C11.5114 13.8937 11.7017 13.8364 11.8591 13.7237C12.0164 13.611 12.132 13.4493 12.1877 13.2639C12.2433 13.0785 12.2359 12.8798 12.1666 12.6991L10.895 8.88992C10.8771 8.83411 10.8764 8.77421 10.8931 8.71803C10.9097 8.66184 10.9429 8.61197 10.9883 8.57492L14.0158 6.06075C14.1469 5.94106 14.2387 5.78456 14.2793 5.61177C14.3199 5.43898 14.3074 5.25795 14.2433 5.09242Z" fill="black"/>
<g clip-path="url(#clip1_959_12439)">
<path d="M14.0975 5.13323C14.0327 4.96257 13.9178 4.81551 13.7679 4.7114C13.6179 4.60728 13.44 4.55098 13.2575 4.5499H9.63497L8.33414 0.874899C8.27088 0.703853 8.15674 0.556291 8.00708 0.452076C7.85742 0.34786 7.67943 0.291992 7.49706 0.291992C7.31469 0.291992 7.1367 0.34786 6.98704 0.452076C6.83738 0.556291 6.72324 0.703853 6.65998 0.874899L5.36497 4.54407H1.74247C1.55739 4.54088 1.3759 4.59531 1.22313 4.69984C1.07036 4.80436 0.953864 4.9538 0.889782 5.12746C0.8257 5.30112 0.817201 5.49041 0.865461 5.66912C0.91372 5.84782 1.01635 6.0071 1.15914 6.1249L4.23331 8.66823L2.94997 12.5299C2.88901 12.71 2.88714 12.9048 2.94464 13.0861C3.00215 13.2673 3.11602 13.4254 3.26967 13.5374C3.42332 13.6494 3.60871 13.7093 3.79883 13.7086C3.98896 13.7079 4.17387 13.6464 4.32664 13.5332L7.49997 11.1999L10.6733 13.5332C10.8261 13.6464 11.011 13.7079 11.2011 13.7086C11.3912 13.7093 11.5766 13.6494 11.7303 13.5374C11.8839 13.4254 11.9978 13.2673 12.0553 13.0861C12.1128 12.9048 12.1109 12.71 12.05 12.5299L10.7608 8.66823L13.8408 6.11907C13.9784 6.00005 14.0766 5.84208 14.1224 5.66605C14.1682 5.49002 14.1595 5.30422 14.0975 5.13323ZM9.66414 7.9974C9.56748 8.07354 9.49737 8.1783 9.46385 8.29669C9.43032 8.41509 9.43509 8.54105 9.47748 8.65657L10.4166 11.4916C10.4277 11.5216 10.4285 11.5545 10.419 11.585C10.4095 11.6156 10.3902 11.6422 10.3641 11.6607C10.338 11.6801 10.3063 11.6906 10.2737 11.6906C10.2412 11.6906 10.2095 11.6801 10.1833 11.6607L7.84997 9.9574C7.74413 9.88255 7.61794 9.84184 7.48831 9.84073C7.35856 9.84108 7.23214 9.88186 7.12664 9.9574L4.81664 11.6666C4.79049 11.686 4.75879 11.6965 4.72622 11.6965C4.69366 11.6965 4.66196 11.686 4.63581 11.6666C4.60843 11.6477 4.5883 11.6201 4.57876 11.5883C4.56921 11.5565 4.57081 11.5224 4.58331 11.4916L5.52247 8.65657C5.56486 8.54105 5.56963 8.41509 5.5361 8.29669C5.50257 8.1783 5.43247 8.07354 5.33581 7.9974L3.00247 6.0374C2.97739 6.01809 2.95927 5.99114 2.95085 5.96062C2.94243 5.9301 2.94417 5.89767 2.95581 5.86823C2.96544 5.83841 2.98407 5.81231 3.00914 5.7935C3.03421 5.7747 3.06448 5.76413 3.09581 5.76323H5.79664C5.9236 5.76488 6.04793 5.72703 6.15244 5.65492C6.25694 5.58281 6.33645 5.48001 6.37997 5.36073L7.35997 2.5724C7.3718 2.54342 7.39198 2.51862 7.41795 2.50117C7.44393 2.48371 7.47451 2.47439 7.50581 2.47439C7.5371 2.47439 7.56769 2.48371 7.59366 2.50117C7.61964 2.51862 7.63982 2.54342 7.65164 2.5724L8.63164 5.36073C8.67516 5.48001 8.75468 5.58281 8.85918 5.65492C8.96369 5.72703 9.08802 5.76488 9.21497 5.76323H11.9391C11.9713 5.76378 12.0024 5.77413 12.0285 5.79289C12.0546 5.81166 12.0743 5.83795 12.085 5.86823C12.0966 5.89767 12.0984 5.9301 12.0899 5.96062C12.0815 5.99114 12.0634 6.01809 12.0383 6.0374L9.66414 7.9974Z" fill="black"/>
</g>
</g>
<defs>
<clipPath id="clip0_959_12439">
<rect width="14" height="14" fill="white" transform="translate(0.5)"/>
</clipPath>
<clipPath id="clip1_959_12439">
<rect width="14" height="14" fill="white" transform="translate(0.5)"/>
</clipPath>
</defs>
</svg>
