<svg width="14" height="14" viewBox="0 0 14 14" fill="none" xmlns="http://www.w3.org/2000/svg">
<path d="M13.7629 4.84124C13.6981 4.67058 13.5832 4.52352 13.4333 4.4194C13.2833 4.31528 13.1054 4.25898 12.9229 4.25791H9.30038L7.99955 0.582907C7.93629 0.411861 7.82214 0.264299 7.67248 0.160083C7.52283 0.0558677 7.34483 0 7.16246 0C6.98009 0 6.8021 0.0558677 6.65244 0.160083C6.50278 0.264299 6.38864 0.411861 6.32538 0.582907L5.03038 4.25207H1.40788C1.2228 4.24888 1.04131 4.30332 0.888535 4.40784C0.735762 4.51237 0.619269 4.66181 0.555187 4.83547C0.491106 5.00913 0.482606 5.19842 0.530866 5.37713C0.579126 5.55583 0.681757 5.71511 0.824547 5.83291L3.89871 8.37624L2.61538 12.2379C2.55441 12.418 2.55254 12.6128 2.61005 12.7941C2.66756 12.9753 2.78143 13.1334 2.93508 13.2454C3.08872 13.3574 3.27412 13.4173 3.46424 13.4166C3.65436 13.4159 3.83928 13.3544 3.99205 13.2412L7.16538 10.9079L10.3387 13.2412C10.4915 13.3544 10.6764 13.4159 10.8665 13.4166C11.0566 13.4173 11.242 13.3574 11.3957 13.2454C11.5493 13.1334 11.6632 12.9753 11.7207 12.7941C11.7782 12.6128 11.7763 12.418 11.7154 12.2379L10.4262 8.37624L13.5062 5.82707C13.6438 5.70806 13.742 5.55009 13.7878 5.37406C13.8336 5.19802 13.8249 5.01223 13.7629 4.84124ZM9.32955 7.70541C9.23289 7.78155 9.16278 7.88631 9.12925 8.0047C9.09573 8.12309 9.1005 8.24906 9.14288 8.36457L10.082 11.1996C10.0931 11.2296 10.0939 11.2625 10.0844 11.293C10.0749 11.3236 10.0557 11.3502 10.0295 11.3687C10.0034 11.3882 9.9717 11.3986 9.93913 11.3986C9.90656 11.3986 9.87486 11.3882 9.84871 11.3687L7.51538 9.66541C7.40954 9.59056 7.28334 9.54985 7.15371 9.54874C7.02396 9.54909 6.89754 9.58987 6.79205 9.66541L4.48205 11.3746C4.4559 11.394 4.4242 11.4045 4.39163 11.4045C4.35906 11.4045 4.32736 11.394 4.30121 11.3746C4.27384 11.3557 4.25371 11.3281 4.24416 11.2963C4.23461 11.2645 4.23622 11.2304 4.24871 11.1996L5.18788 8.36457C5.23026 8.24906 5.23503 8.12309 5.20151 8.0047C5.16798 7.88631 5.09787 7.78155 5.00121 7.70541L2.66788 5.74541C2.64279 5.7261 2.62467 5.69915 2.61625 5.66863C2.60784 5.63811 2.60958 5.60568 2.62121 5.57624C2.63084 5.54642 2.64947 5.52031 2.67454 5.50151C2.69961 5.48271 2.72989 5.47213 2.76121 5.47124H5.46205C5.589 5.47289 5.71334 5.43504 5.81784 5.36293C5.92235 5.29082 6.00186 5.18802 6.04538 5.06874L7.02538 2.28041C7.0372 2.25143 7.05738 2.22663 7.08336 2.20918C7.10933 2.19172 7.13992 2.1824 7.17121 2.1824C7.20251 2.1824 7.23309 2.19172 7.25907 2.20918C7.28504 2.22663 7.30523 2.25143 7.31705 2.28041L8.29705 5.06874C8.34057 5.18802 8.42008 5.29082 8.52459 5.36293C8.62909 5.43504 8.75342 5.47289 8.88038 5.47124H11.6045C11.6367 5.47178 11.6678 5.48213 11.6939 5.5009C11.72 5.51967 11.7397 5.54596 11.7504 5.57624C11.762 5.60568 11.7638 5.63811 11.7553 5.66863C11.7469 5.69915 11.7288 5.7261 11.7037 5.74541L9.32955 7.70541Z" fill="black"/>
</svg>
