<svg width="20" height="22" viewBox="0 0 20 22" fill="none" xmlns="http://www.w3.org/2000/svg">
<path d="M10.2452 10.1871C12.5648 10.1871 14.4452 8.3067 14.4452 5.98711C14.4452 3.66751 12.5648 1.78711 10.2452 1.78711C7.92557 1.78711 6.04517 3.66751 6.04517 5.98711C6.04517 8.3067 7.92557 10.1871 10.2452 10.1871Z" fill="#95A187" stroke="#95A187" stroke-width="3" stroke-linecap="round" stroke-linejoin="round"/>
<path d="M2.44507 19.7873C2.44507 17.7186 3.26685 15.7347 4.72964 14.2719C6.19242 12.8091 8.17638 11.9873 10.2451 11.9873C12.3138 11.9873 14.2977 12.8091 15.7605 14.2719C17.2233 15.7347 18.0451 17.7186 18.0451 19.7873" fill="#95A187"/>
<path d="M2.44507 19.7873C2.44507 17.7186 3.26685 15.7347 4.72964 14.2719C6.19242 12.8091 8.17638 11.9873 10.2451 11.9873C12.3138 11.9873 14.2977 12.8091 15.7605 14.2719C17.2233 15.7347 18.0451 17.7186 18.0451 19.7873H10.2451H2.44507Z" stroke="#95A187" stroke-width="3" stroke-linecap="round" stroke-linejoin="round"/>
</svg>
