<svg width="46" height="29" viewBox="0 0 46 29" fill="none" xmlns="http://www.w3.org/2000/svg">
<path d="M44.6253 17.1455V3.91747C44.6253 3.21581 44.3163 2.54288 43.7662 2.04673C43.2161 1.55058 42.47 1.27185 41.692 1.27185H18.2253C17.4474 1.27185 16.7013 1.55058 16.1511 2.04673C15.601 2.54288 15.292 3.21581 15.292 3.91747V14.4999" stroke="black" stroke-linecap="round" stroke-linejoin="round"/>
<path d="M15.2917 14.4999V3.91748H9.42501C7.0911 3.91748 4.85278 4.75368 3.20246 6.24213C1.55214 7.73058 0.625 9.74935 0.625 11.8543V22.4368C0.625 23.1385 0.934047 23.8114 1.48415 24.3075C2.03426 24.8037 2.78037 25.0824 3.55834 25.0824H5.025" stroke="black" stroke-linecap="round" stroke-linejoin="round"/>
<path d="M0.625 14.4999H6.49167C7.26964 14.4999 8.01575 14.2212 8.56585 13.7251C9.11596 13.2289 9.42501 12.556 9.42501 11.8543V3.91748" stroke="black" stroke-linecap="round" stroke-linejoin="round"/>
<path d="M13.825 27.728C16.255 27.728 18.225 25.9513 18.225 23.7596C18.225 21.5679 16.255 19.7911 13.825 19.7911C11.3949 19.7911 9.42499 21.5679 9.42499 23.7596C9.42499 25.9513 11.3949 27.728 13.825 27.728Z" stroke="black" stroke-linecap="round" stroke-linejoin="round"/>
<path d="M37.2917 27.728C39.7217 27.728 41.6917 25.9513 41.6917 23.7596C41.6917 21.5679 39.7217 19.7911 37.2917 19.7911C34.8616 19.7911 32.8917 21.5679 32.8917 23.7596C32.8917 25.9513 34.8616 27.728 37.2917 27.728Z" stroke="black" stroke-linecap="round" stroke-linejoin="round"/>
<path d="M22.6249 25.0824H28.4916" stroke="black" stroke-linecap="round" stroke-linejoin="round"/>
</svg>
