<svg width="107" height="38" viewBox="0 0 107 38" fill="none" xmlns="http://www.w3.org/2000/svg">
<path d="M106 0.787109H1V36.7871H106V0.787109Z" fill="#95A187" stroke="#F8F9FA" stroke-miterlimit="10"/>
<path d="M50.0127 11.6585H48.1479V10.1609H50.9403C52.0062 11.2841 53.127 12.3643 54.1332 13.5447C56.3294 16.1224 62.2599 22.8278 63.1994 24.032C63.2853 21.6737 63.2376 19.7183 63.2447 17.7677C63.2543 15.7814 63.2447 13.795 63.2447 11.7395H61.7162C61.69 11.1839 61.6661 10.6903 61.6375 10.1323H66.7477V11.6465H64.8543V27.5565C63.538 25.5463 60.0112 22.2055 59.9206 22.1101C57.9462 20.0045 55.9551 17.9108 54.0069 15.7814C53.27 14.9754 52.631 14.0812 51.9418 13.2227C51.8369 13.3157 51.7797 13.3515 51.7439 13.3992C51.7105 13.4469 51.6771 13.5113 51.6771 13.5685C51.6747 17.4148 51.6747 21.2588 51.6747 25.1766H53.5753V26.7767H48.1646V25.2434H50.0079V11.6585H50.0127Z" fill="#F8F9FA"/>
<path d="M39.64 13.6234H38.1639V11.7587H33.7763V25.2077H35.6792V26.7577H30.2042L30.1231 25.2911H32.0379V11.7253H27.7767V13.6162H26.2243V10.2039C26.1909 10.2421 26.2243 10.1848 26.2768 10.1467C26.3245 10.1109 26.3889 10.0751 26.4437 10.0751C30.8194 10.0728 35.1951 10.0728 39.6424 10.0728V13.6234H39.64Z" fill="#F8F9FA"/>
<path d="M41.3471 26.8289V25.279H42.8136V11.7107L41.3829 11.6344V10.2037C41.3495 10.2418 41.3924 10.1512 41.4353 10.1512C43.0783 10.144 44.7213 10.144 46.4286 10.144V11.6225L44.552 11.7059V25.2098H46.493C46.493 25.6057 46.4835 25.8608 46.493 26.1136C46.5145 26.5428 46.5121 26.8647 45.8921 26.8433C44.4304 26.7956 42.9662 26.8289 41.3447 26.8289H41.3471Z" fill="#F8F9FA"/>
<path d="M67.9804 17.7535C67.9804 11.8231 73.9276 7.66436 79.4693 9.66026C80.1227 9.89633 80.8738 10.626 80.8738 10.626C80.8738 10.626 80.9788 11.308 81.005 12.0019C81.0193 12.3978 81.0098 12.7292 80.9978 12.9653C80.4995 12.9677 80.0011 12.9724 79.5027 12.9748C79.4717 12.4908 79.4407 11.9447 79.4097 11.4582C79.0949 11.2818 78.6514 11.1339 78.0982 10.9885C75.7208 10.3661 72.74 11.2985 71.0684 13.5042C69.2895 15.853 69.0678 18.8647 70.4914 21.328C71.8887 23.746 74.7407 25.1934 77.3447 24.7642C77.9885 24.6569 78.649 24.4947 79.2356 24.2157C79.5361 24.075 79.9462 23.9725 79.9462 23.9725L80.6783 25.2459C80.6783 25.2459 80.0726 25.5845 79.796 25.7085C74.321 28.1694 67.9756 23.8819 67.978 17.7464L67.9804 17.7535Z" fill="#F8F9FA"/>
</svg>
