<svg width="228" height="29" viewBox="0 0 228 29" fill="none" xmlns="http://www.w3.org/2000/svg">
<path fill-rule="evenodd" clip-rule="evenodd" d="M139.719 0.903443C124.341 0.535826 109.521 1.13253 94.0533 1.40775C65.6289 1.91352 30.4565 0.13921 10.783 3.19769C-7.3774 6.02094 1.18727 10.9083 9.08881 14.6165C16.3573 18.0276 35.5804 20.4055 52.8209 22.9258C68.8291 25.2661 83.428 29.0391 105.931 28.7738C130.35 28.4859 136.388 22.9372 159.321 21.6702C179.379 20.562 206.842 24.5617 222.129 22.3541C236.869 20.2255 219.636 16.4628 216.105 13.4698C213.651 11.3894 211.753 9.32973 204.605 7.49829C197.919 5.78514 187.795 4.50761 176.744 3.38446C165.357 2.22706 153.383 1.23008 139.719 0.903443Z" fill="#F3E9D9"/>
</svg>
